# xmcd
# 
# Track frame offsets:
#     150
#     10440
#     26474
#     42840
#     65426
#     86462
#     125469
#     155062
#     172651
# 
# Disc length: 2528
# 
# Revision: 1
# Processed by: cddbd v1.5.2PL0 Copyright (c) Steve Scherf et al.
# Submitted via: fre:ac v1.0.27
# 
DISCID=6609de09
DTITLE=Tom Waits - Foreign Affairs [2018 Remaster]
DYEAR=1977
DGENRE=Blues/Rock/Jazz
TTITLE0=Cinny's Waltz
TTITLE1=Muriel
TTITLE2=I Never Talk To Strangers
TTITLE3=Medley: Jack and Neal-California, Here I Come
TTITLE4=A Sight For Sore Eyes
TTITLE5=Potter's Field
TTITLE6=Burma-Shave
TTITLE7=Barber Shop
TTITLE8=Foreign Affair
EXTD=2018 ANTI Reissue
EXTT0=
EXTT1=
EXTT2=
EXTT3=
EXTT4=
EXTT5=
EXTT6=
EXTT7=
EXTT8=
PLAYORDER=
